<svg xmlns="http://www.w3.org/2000/svg" viewBox="0 0 900 560">
  <defs>
    <linearGradient id="bg" x1="0" x2="1">
      <stop offset="0" stop-color="#071427"/>
      <stop offset=".58" stop-color="#123a73"/>
      <stop offset="1" stop-color="#dbeafe"/>
    </linearGradient>
    <filter id="shadow" x="-20%" y="-20%" width="140%" height="140%">
      <feDropShadow dx="0" dy="12" stdDeviation="18" flood-opacity=".35"/>
    </filter>
  </defs>
  <rect width="900" height="560" rx="22" fill="url(#bg)"/>
  <rect width="900" height="560" rx="22" fill="#020617" opacity=".18"/>
  <g opacity=".88">
    <rect x="430" y="135" width="102" height="245" rx="34" fill="#111827" filter="url(#shadow)"/>
    <rect x="444" y="160" width="74" height="170" rx="12" fill="#eaf4ff"/>
    <circle cx="481" cy="352" r="11" fill="#334155"/>
    <rect x="625" y="124" width="105" height="260" rx="34" fill="#111827" filter="url(#shadow)"/>
    <rect x="640" y="151" width="75" height="178" rx="12" fill="#eef6ff"/>
    <circle cx="677" cy="356" r="11" fill="#334155"/>
    <rect x="720" y="170" width="82" height="210" rx="28" fill="#111827" filter="url(#shadow)"/>
    <rect x="733" y="193" width="56" height="142" rx="10" fill="#dbeafe"/>
  </g>
  <g transform="translate(488 110)">
    <circle cx="105" cy="92" r="58" fill="#1f2937"/>
    <path d="M36 245c18-75 125-75 143 0Z" fill="#111827"/>
    <path d="M80 61c14-15 39-15 53 0" fill="none" stroke="#94a3b8" stroke-width="6" stroke-linecap="round"/>
  </g>
  <g transform="translate(655 122) scale(.86)">
    <circle cx="105" cy="92" r="58" fill="#334155"/>
    <path d="M36 245c18-75 125-75 143 0Z" fill="#1f2937"/>
  </g>
  <rect x="35" y="58" width="365" height="250" rx="18" fill="#020617" opacity=".45"/>
  <text x="68" y="115" font-family="Arial, Helvetica, sans-serif" font-size="43" font-weight="900" fill="white">Students Submit</text>
  <text x="68" y="172" font-family="Arial, Helvetica, sans-serif" font-size="43" font-weight="900" fill="white">Online Attendance</text>
  <text x="70" y="230" font-family="Arial, Helvetica, sans-serif" font-size="24" fill="#dbeafe">Quick - Secure - Real-Time</text>
  <rect x="70" y="263" width="330" height="52" rx="26" fill="#2563eb"/>
  <circle cx="105" cy="289" r="15" fill="white"/>
  <path d="M98 289l6 6 12-14" fill="none" stroke="#2563eb" stroke-width="4" stroke-linecap="round" stroke-linejoin="round"/>
  <text x="132" y="298" font-family="Arial, Helvetica, sans-serif" font-size="21" font-weight="700" fill="white">Live, Accurate and Hassle-Free</text>
</svg>
