<svg xmlns="http://www.w3.org/2000/svg" viewBox="0 0 900 560">
  <defs>
    <linearGradient id="bg" x1="0" x2="1" y1="0" y2="1">
      <stop offset="0" stop-color="#eff6ff"/>
      <stop offset="1" stop-color="#dbeafe"/>
    </linearGradient>
    <filter id="shadow" x="-20%" y="-20%" width="140%" height="140%">
      <feDropShadow dx="0" dy="14" stdDeviation="18" flood-opacity=".24"/>
    </filter>
  </defs>
  <rect width="900" height="560" rx="22" fill="url(#bg)"/>
  <g transform="translate(54 42)" filter="url(#shadow)">
    <rect width="330" height="476" rx="42" fill="#111827"/>
    <rect x="23" y="30" width="284" height="416" rx="26" fill="white"/>
    <rect x="115" y="17" width="100" height="24" rx="12" fill="#111827"/>
    <text x="60" y="90" font-family="Arial" font-size="21" font-weight="900" fill="#0f172a">Smart Attendance</text>
    <text x="60" y="142" font-family="Arial" font-size="27" font-weight="900" fill="#0f172a">Submit Attendance</text>
    <text x="60" y="176" font-family="Arial" font-size="17" fill="#0f172a">Course: Computer Science 101</text>
    <text x="60" y="201" font-family="Arial" font-size="17" fill="#0f172a">Time: 10:15 AM - 11:45 AM</text>
    <text x="60" y="244" font-family="Arial" font-size="23" font-weight="900" fill="#0f172a">1. Take a Live Selfie</text>
    <rect x="60" y="264" width="205" height="120" rx="10" fill="#dbeafe" stroke="#16a34a" stroke-width="3"/>
    <circle cx="162" cy="306" r="35" fill="#4b5563"/>
    <path d="M98 370c14-54 114-54 128 0Z" fill="#374151"/>
    <rect x="60" y="350" width="205" height="34" rx="0" fill="#16a34a" opacity=".9"/>
    <text x="110" y="373" font-family="Arial" font-size="18" font-weight="900" fill="white">Face Verified</text>
    <text x="60" y="422" font-family="Arial" font-size="23" font-weight="900" fill="#0f172a">2. Verify Location</text>
    <text x="80" y="452" font-family="Arial" font-size="16" fill="#0f172a">You are within the class location</text>
    <rect x="55" y="472" width="220" height="48" rx="10" fill="#2563eb"/>
    <text x="100" y="504" font-family="Arial" font-size="22" font-weight="900" fill="white">Submit Attendance</text>
  </g>
  <g transform="translate(545 90)">
    <rect width="300" height="335" rx="26" fill="white" opacity=".86"/>
    <text x="40" y="70" font-family="Arial" font-size="36" font-weight="900" fill="#0f172a">Simple Steps</text>
    <text x="40" y="114" font-family="Arial" font-size="36" font-weight="900" fill="#0f172a">for Students</text>
    <g font-family="Arial" font-size="24" fill="#0f172a">
      <circle cx="63" cy="172" r="22" fill="#2563eb"/><path d="M52 172l8 8 16-18" fill="none" stroke="white" stroke-width="5" stroke-linecap="round" stroke-linejoin="round"/><text x="98" y="181">Take Selfie</text>
      <circle cx="63" cy="238" r="22" fill="#2563eb"/><path d="M52 238l8 8 16-18" fill="none" stroke="white" stroke-width="5" stroke-linecap="round" stroke-linejoin="round"/><text x="98" y="247">Verify Location</text>
      <circle cx="63" cy="304" r="22" fill="#2563eb"/><path d="M52 304l8 8 16-18" fill="none" stroke="white" stroke-width="5" stroke-linecap="round" stroke-linejoin="round"/><text x="98" y="313">Submit</text>
    </g>
  </g>
</svg>
