<svg xmlns="http://www.w3.org/2000/svg" viewBox="0 0 900 560">
  <defs>
    <linearGradient id="bg" x1="0" x2="1" y1="0" y2="1">
      <stop offset="0" stop-color="#dbeafe"/>
      <stop offset="1" stop-color="#eef2ff"/>
    </linearGradient>
    <filter id="shadow" x="-20%" y="-20%" width="140%" height="140%">
      <feDropShadow dx="0" dy="12" stdDeviation="18" flood-opacity=".22"/>
    </filter>
  </defs>
  <rect width="900" height="560" rx="22" fill="url(#bg)"/>
  <rect x="255" y="22" width="390" height="56" rx="8" fill="#0f172a"/>
  <circle cx="300" cy="50" r="11" fill="white"/>
  <path d="M278 67c6-22 38-22 44 0Z" fill="white"/>
  <text x="345" y="60" font-family="Arial, Helvetica, sans-serif" font-size="24" font-weight="900" letter-spacing="2" fill="white">ADMIN DASHBOARD</text>
  <text x="304" y="104" font-family="Arial, Helvetica, sans-serif" font-size="16" font-weight="700" fill="#0f172a">Real-Time Attendance Management and Reports</text>
  <g transform="translate(34 125)" filter="url(#shadow)">
    <rect width="832" height="372" rx="18" fill="white"/>
    <rect width="190" height="372" rx="18" fill="#f8fafc"/>
    <text x="56" y="48" font-family="Arial" font-size="18" font-weight="900" fill="#0f172a">Smart Attendance</text>
    <rect x="24" y="86" width="142" height="42" rx="7" fill="#2563eb"/>
    <text x="68" y="112" font-family="Arial" font-size="15" font-weight="900" fill="white">Dashboard</text>
    <text x="56" y="162" font-family="Arial" font-size="15" fill="#0f172a">Sessions</text>
    <text x="56" y="204" font-family="Arial" font-size="15" fill="#0f172a">Attendance</text>
    <text x="56" y="246" font-family="Arial" font-size="15" fill="#0f172a">Reports</text>
    <text x="222" y="50" font-family="Arial" font-size="22" font-weight="900" fill="#0f172a">Welcome, Dr. John Mikenda</text>
    <text x="222" y="78" font-family="Arial" font-size="14" fill="#475569">Attendance dashboard</text>
    <g transform="translate(222 112)">
      <rect width="150" height="70" rx="9" fill="#f8fafc" stroke="#e2e8f0"/>
      <circle cx="32" cy="35" r="16" fill="#dbeafe"/>
      <text x="60" y="28" font-family="Arial" font-size="13" fill="#475569">Total Students</text>
      <text x="60" y="52" font-family="Arial" font-size="28" font-weight="900" fill="#0f172a">248</text>
    </g>
    <g transform="translate(392 112)">
      <rect width="150" height="70" rx="9" fill="#f8fafc" stroke="#e2e8f0"/>
      <circle cx="32" cy="35" r="16" fill="#dcfce7"/>
      <text x="60" y="28" font-family="Arial" font-size="13" fill="#475569">Present Today</text>
      <text x="60" y="52" font-family="Arial" font-size="28" font-weight="900" fill="#0f172a">186</text>
    </g>
    <g transform="translate(562 112)">
      <rect width="150" height="70" rx="9" fill="#f8fafc" stroke="#e2e8f0"/>
      <circle cx="32" cy="35" r="16" fill="#fee2e2"/>
      <text x="60" y="28" font-family="Arial" font-size="13" fill="#475569">Absent Today</text>
      <text x="60" y="52" font-family="Arial" font-size="28" font-weight="900" fill="#0f172a">62</text>
    </g>
    <rect x="222" y="214" width="590" height="126" rx="10" fill="#f8fafc" stroke="#e2e8f0"/>
    <text x="246" y="244" font-family="Arial" font-size="17" font-weight="900" fill="#0f172a">Recent Submitted Attendance</text>
    <g font-family="Arial" font-size="14" fill="#334155">
      <text x="246" y="282">Amina Joseph</text><text x="420" y="282">BIS/23/014</text><text x="570" y="282">GPS verified</text><text x="710" y="282" fill="#16a34a" font-weight="900">Submitted</text>
      <text x="246" y="314">Kelvin Mushi</text><text x="420" y="314">ICT/22/091</text><text x="570" y="314">GPS verified</text><text x="710" y="314" fill="#16a34a" font-weight="900">Submitted</text>
    </g>
  </g>
</svg>
