<svg xmlns="http://www.w3.org/2000/svg" viewBox="0 0 900 560">
  <defs>
    <linearGradient id="sky" x1="0" x2="1" y1="0" y2="1">
      <stop offset="0" stop-color="#bfdbfe"/>
      <stop offset="1" stop-color="#eff6ff"/>
    </linearGradient>
    <filter id="shadow" x="-20%" y="-20%" width="140%" height="140%">
      <feDropShadow dx="0" dy="14" stdDeviation="18" flood-opacity=".25"/>
    </filter>
  </defs>
  <rect width="900" height="560" rx="22" fill="url(#sky)"/>
  <rect y="320" width="900" height="240" fill="#dbeafe"/>
  <rect x="20" y="235" width="250" height="160" fill="#d7d3c8"/>
  <rect x="38" y="255" width="50" height="52" fill="#9bb2c7"/>
  <rect x="112" y="255" width="50" height="52" fill="#9bb2c7"/>
  <rect x="186" y="255" width="50" height="52" fill="#9bb2c7"/>
  <text x="56" y="370" font-family="Arial, Helvetica, sans-serif" font-size="28" font-weight="900" fill="#0f172a">ELIMU INSTITUTE</text>
  <rect x="200" y="20" width="500" height="58" rx="8" fill="#111827"/>
  <text x="286" y="57" font-family="Arial, Helvetica, sans-serif" font-size="25" font-weight="900" letter-spacing="5" fill="white">GPS LOCATION VERIFICATION</text>
  <circle cx="255" cy="49" r="14" fill="white"/>
  <path d="M255 35c-18 0-31 15-31 31 0 24 31 55 31 55s31-31 31-55c0-16-13-31-31-31Zm0 41a10 10 0 1 1 0-20 10 10 0 0 1 0 20Z" fill="#2563eb" transform="translate(-3 -20) scale(.55)"/>
  <text x="270" y="104" font-family="Arial, Helvetica, sans-serif" font-size="18" font-weight="700" fill="#0f172a">Ensuring students are at the approved class location</text>
  <g transform="translate(260 118)" filter="url(#shadow)">
    <rect width="250" height="360" rx="34" fill="#111827"/>
    <rect x="18" y="28" width="214" height="300" rx="16" fill="#f8fafc"/>
    <path d="M24 230 230 116M24 144 230 250M64 28v300M126 28v300M190 28v300" stroke="#cbd5e1" stroke-width="6"/>
    <circle cx="125" cy="170" r="82" fill="#60a5fa" opacity=".28"/>
    <path d="M125 92c-34 0-61 27-61 60 0 48 61 110 61 110s61-62 61-110c0-33-27-60-61-60Z" fill="#2563eb"/>
    <circle cx="125" cy="153" r="23" fill="white"/>
    <rect x="66" y="214" width="118" height="55" rx="8" fill="white"/>
    <text x="82" y="236" font-family="Arial" font-size="18" font-weight="800" fill="#0f172a">ELIMU</text>
    <text x="73" y="258" font-family="Arial" font-size="13" fill="#0f172a">Main Campus</text>
  </g>
  <g transform="translate(595 135)" filter="url(#shadow)">
    <rect width="260" height="310" rx="18" fill="white" opacity=".92"/>
    <g font-family="Arial, Helvetica, sans-serif" fill="#0f172a">
      <circle cx="42" cy="48" r="15" fill="#2563eb"/>
      <text x="74" y="43" font-size="19" font-weight="900">Your Location</text>
      <text x="74" y="70" font-size="17">ELIMU Institute</text>
      <text x="74" y="93" font-size="15">-6.8605, 39.2093</text>
      <line x1="42" y1="118" x2="220" y2="118" stroke="#cbd5e1"/>
      <circle cx="42" cy="148" r="15" fill="#2563eb"/>
      <text x="74" y="143" font-size="19" font-weight="900">Class Location</text>
      <text x="74" y="170" font-size="17">ELIMU Institute</text>
      <text x="74" y="193" font-size="15">-6.8606, 39.2091</text>
      <line x1="42" y1="218" x2="220" y2="218" stroke="#cbd5e1"/>
      <circle cx="42" cy="248" r="15" fill="#2563eb"/>
      <text x="74" y="243" font-size="19" font-weight="900">Distance</text>
      <text x="74" y="270" font-size="17">You are 28m away</text>
    </g>
    <rect x="28" y="284" width="205" height="42" rx="21" fill="#dcfce7"/>
    <circle cx="52" cy="305" r="12" fill="#16a34a"/>
    <path d="M46 305l5 5 10-12" fill="none" stroke="white" stroke-width="4" stroke-linecap="round" stroke-linejoin="round"/>
    <text x="74" y="312" font-family="Arial" font-size="17" font-weight="900" fill="#166534">Within Allowed Area</text>
  </g>
</svg>
